<?xml version="1.0" encoding="UTF-8"?>
<svg width="300px" height="113px" viewBox="0 0 300 113" version="1.1" xmlns="http://www.w3.org/2000/svg" xmlns:xlink="http://www.w3.org/1999/xlink">
    <!-- Generator: Sketch 59.1 (86144) - https://sketch.com -->
    <title>Group Copy</title>
    <desc>Created with Sketch.</desc>
    <g id="Login" stroke="none" stroke-width="1" fill="none" fill-rule="evenodd">
        <g id="GlubHub">
            <g id="Group-Copy">
                <rect id="Rectangle" fill="#C9B478" x="151" y="0.269230769" width="149" height="112" rx="5"></rect>
                <path d="M40.1169795,60.4873193 L40.1169795,54.9703212 L21.8655609,54.9703212 L21.8655609,61.6027779 L31.2924487,61.6027779 L31.2623309,62.4167612 C31.0816237,67.8433167 26.955478,71.4911679 20.9921432,71.4911679 C13.8240943,71.4911679 9.30641641,65.7329896 9.30641641,56.266665 C9.30641641,46.9812256 13.6132693,41.2833424 20.6307289,41.2833424 C25.6905282,41.2833424 29.3347883,43.87603 30.6900917,48.4283071 L39.7254474,48.4283071 C38.4604976,39.4141955 30.9009166,33.535427 20.6307289,33.535427 C7.9812309,33.535427 0,42.3686535 0,56.3571076 C0,70.5565945 7.9209952,79.2692308 20.8415539,79.2692308 C32.7079878,79.2692308 40.1169795,72.0338235 40.1169795,60.4873193 Z M48.2487997,78.1537721 L57.0130947,78.1537721 L57.0130947,32.2692308 L48.2487997,32.2692308 L48.2487997,78.1537721 Z M96.1663029,44.9613411 L87.4020079,44.9613411 L87.4020079,64.1351705 C87.4020079,68.6874476 85.0528154,71.4911679 80.6857268,71.4911679 C76.6499345,71.4911679 74.5718027,69.109513 74.5718027,64.4064982 L74.5718027,44.9613411 L65.8075076,44.9613411 L65.8075076,66.5771204 C65.8075076,74.2948882 70.2649498,78.8471653 77.4329987,78.8471653 C82.4626801,78.8471653 85.5648189,76.6765431 87.1309472,72.8176592 L87.6730685,72.8176592 L87.6730685,78.1537721 L96.1663029,78.1537721 L96.1663029,44.9613411 Z M124.53732,78.6662802 C132.879965,78.6662802 138,72.1845611 138,61.5424829 C138,50.8401095 132.940201,44.4186855 124.53732,44.4186855 C119.989524,44.4186855 116.254911,46.6194553 114.568311,50.2673065 L114.026189,50.2673065 L114.026189,32.2692308 L105.261894,32.2692308 L105.261894,78.1537721 L113.755129,78.1537721 L113.755129,72.9382494 L114.29725,72.9382494 C116.074203,76.555953 119.838935,78.6662802 124.53732,78.6662802 Z M121.495417,51.5335027 C126.133566,51.5335027 128.994762,55.3622391 128.994762,61.5424829 C128.994762,67.7830217 126.163684,71.5816105 121.495417,71.5816105 C116.857268,71.5816105 113.965954,67.7528741 113.935836,61.5726304 C113.965954,55.3923866 116.887385,51.5335027 121.495417,51.5335027 Z" id="Glub" fill="#161F28" fill-rule="nonzero"></path>
                <path d="M204.664311,77.5844411 L204.664311,34.6213343 L195.59364,34.6213343 L195.59364,52.0685835 L176.070671,52.0685835 L176.070671,34.6213343 L167,34.6213343 L167,77.5844411 L176.070671,77.5844411 L176.070671,59.4821758 L195.59364,59.4821758 L195.59364,77.5844411 L204.664311,77.5844411 Z M244.280919,44.8038586 L235.540636,44.8038586 L235.540636,63.7397809 C235.540636,68.2355738 233.19788,71.0045059 228.842756,71.0045059 C224.818021,71.0045059 222.745583,68.6524023 222.745583,64.0077421 L222.745583,44.8038586 L214.0053,44.8038586 L214.0053,66.1514314 C214.0053,73.7734379 218.45053,78.2692308 225.59894,78.2692308 C230.614841,78.2692308 233.708481,76.1255414 235.270318,72.3145382 L235.810954,72.3145382 L235.810954,77.5844411 L244.280919,77.5844411 L244.280919,44.8038586 Z M272.574205,78.09059 C280.893993,78.09059 286,71.6892955 286,61.1792631 C286,50.6096838 280.954064,44.2679363 272.574205,44.2679363 C268.038869,44.2679363 264.314488,46.4413991 262.632509,50.0439881 L262.091873,50.0439881 L262.091873,32.2692308 L253.35159,32.2692308 L253.35159,77.5844411 L261.821555,77.5844411 L261.821555,72.4336321 L262.362191,72.4336321 C264.134276,76.0064476 267.888693,78.09059 272.574205,78.09059 Z M269.540636,51.2944735 C274.166078,51.2944735 277.019435,55.0757033 277.019435,61.1792631 C277.019435,67.3423699 274.196113,71.0938262 269.540636,71.0938262 C264.915194,71.0938262 262.031802,67.3125965 262.001767,61.2090366 C262.031802,55.1054767 264.94523,51.2944735 269.540636,51.2944735 Z" id="Hub" fill="#FFFFFF" fill-rule="nonzero"></path>
            </g>
        </g>
    </g>
</svg>