<?xml version="1.0" encoding="UTF-8"?>
<svg width="140px" height="140px" viewBox="0 0 140 140" version="1.1" xmlns="http://www.w3.org/2000/svg" xmlns:xlink="http://www.w3.org/1999/xlink">
    <!-- Generator: Sketch 59.1 (86144) - https://sketch.com -->
    <title>GlubHub icon</title>
    <desc>Created with Sketch.</desc>
    <g id="GlubHub-icon" stroke="none" stroke-width="1" fill="none" fill-rule="evenodd">
        <rect id="Rectangle" fill="#C9B478" x="70" y="0" width="70" height="140" rx="5"></rect>
        <path d="M55,74.1087673 L55,68.5596572 L36.8018018,68.5596572 L36.8018018,75.2307185 L46.2012012,75.2307185 L46.1711712,76.0494397 C45.990991,81.5075808 41.8768769,85.1766645 35.9309309,85.1766645 C28.7837838,85.1766645 24.2792793,79.3849703 24.2792793,69.8635465 C24.2792793,60.5240606 28.5735736,54.7930125 35.5705706,54.7930125 C40.6156156,54.7930125 44.2492492,57.400791 45.6006006,61.9795649 L54.6096096,61.9795649 C53.3483483,52.9129862 45.8108108,47 35.5705706,47 C22.957958,47 15,55.8846407 15,69.9545155 C15,84.2366513 22.8978979,93 35.7807808,93 C47.6126126,93 55,85.7224786 55,74.1087673 Z" id="Path" fill="#161F28" fill-rule="nonzero"></path>
        <polygon id="Path" fill="#FFFFFF" fill-rule="nonzero" points="124 92 124 49 114.848485 49 114.848485 66.4622315 95.1515152 66.4622315 95.1515152 49 86 49 86 92 95.1515152 92 95.1515152 73.8821899 114.848485 73.8821899 114.848485 92"></polygon>
    </g>
</svg>